<svg width="393" height="270" viewBox="0 0 393 270" fill="none" xmlns="http://www.w3.org/2000/svg">
<rect x="35.2791" y="4" width="356.86" height="1" fill="#ffffff"/>
<rect x="35.2791" y="86" width="356.86" height="1" fill="#ffffff"/>
<rect x="35.2791" y="168" width="356.86" height="1" fill="#ffffff"/>
<rect x="35.2791" y="45" width="356.86" height="1" fill="#ffffff"/>
<rect x="35.2791" y="127" width="356.86" height="1" fill="#ffffff"/>
<rect x="35.2791" y="209" width="356.86" height="1" fill="#ffffff"/>
<g filter="url(#filter0_b_12_368)">
<rect x="54.4651" y="119" width="48.6047" height="123" fill="#0052b4"/>
</g>
<g filter="url(#filter1_b_12_368)">
<rect x="234.814" y="171" width="49.8837" height="71" fill="#0052b4"/>
</g>
<g filter="url(#filter2_b_12_368)">
<rect x="114.581" y="153" width="49.8837" height="89" fill="#0052b4"/>
</g>
<g filter="url(#filter3_b_12_368)">
<rect x="296.209" y="23" width="48.6047" height="219" fill="#0052b4"/>
</g>
<g filter="url(#filter4_b_12_368)">
<rect x="175.977" y="64" width="47.3256" height="178" fill="#0052b4"/>
</g>
<path d="M65.9767 202C65.9767 202 89.6162 173.487 133.92 145.46C213.685 95 225.124 176.39 272.358 156.374C311.566 139.759 360.163 95 360.163 95" stroke="#005643" stroke-width="2" stroke-linecap="round"/>
<path d="M268.849 158.5C268.849 161.706 265.472 164.5 261.035 164.5C256.598 164.5 253.221 161.706 253.221 158.5C253.221 155.294 256.598 152.5 261.035 152.5C265.472 152.5 268.849 155.294 268.849 158.5Z" fill="#005643" stroke="white"/>
<g filter="url(#filter5_b_12_368)">
<rect x="219.465" y="99" width="76.7442" height="36" rx="4" fill="#2E3A59" fill-opacity="0.4"/>
</g>
<path d="M249.323 117H247.88L246.882 114.163H242.48L241.482 117H240.108L243.813 106.821H245.618L249.323 117ZM246.465 113.001L244.681 108.004L242.89 113.001H246.465ZM257.369 109.364L254.279 117H252.987L249.917 109.364H251.312L253.677 115.441L256.022 109.364H257.369ZM265.244 116.132C265.244 117.426 264.95 118.376 264.362 118.982C263.774 119.589 262.869 119.892 261.648 119.892C261.242 119.892 260.846 119.862 260.458 119.803C260.076 119.748 259.697 119.668 259.324 119.563V118.251H259.392C259.602 118.333 259.934 118.433 260.39 118.552C260.846 118.675 261.302 118.736 261.757 118.736C262.195 118.736 262.557 118.684 262.844 118.579C263.131 118.474 263.355 118.328 263.514 118.142C263.674 117.964 263.788 117.75 263.856 117.499C263.924 117.248 263.958 116.968 263.958 116.658V115.961C263.571 116.271 263.2 116.503 262.844 116.658C262.493 116.809 262.044 116.884 261.498 116.884C260.586 116.884 259.861 116.556 259.324 115.899C258.791 115.239 258.524 114.309 258.524 113.11C258.524 112.454 258.615 111.889 258.797 111.415C258.984 110.937 259.237 110.524 259.556 110.178C259.852 109.854 260.212 109.604 260.636 109.426C261.06 109.243 261.482 109.152 261.901 109.152C262.343 109.152 262.712 109.198 263.008 109.289C263.309 109.376 263.626 109.51 263.958 109.692L264.041 109.364H265.244V116.132ZM263.958 114.901V110.738C263.617 110.583 263.298 110.474 263.001 110.41C262.71 110.342 262.418 110.308 262.126 110.308C261.42 110.308 260.864 110.545 260.458 111.019C260.053 111.493 259.85 112.181 259.85 113.083C259.85 113.94 260 114.589 260.301 115.031C260.602 115.473 261.101 115.694 261.798 115.694C262.172 115.694 262.546 115.624 262.919 115.482C263.298 115.337 263.644 115.143 263.958 114.901Z" fill="white"/>
<path d="M245.53 123.912C245.53 124.299 245.462 124.658 245.325 124.99C245.192 125.318 245.005 125.604 244.762 125.846C244.462 126.146 244.106 126.373 243.696 126.525C243.286 126.674 242.768 126.748 242.143 126.748H240.983V130H239.823V121.275H242.19C242.714 121.275 243.157 121.32 243.52 121.41C243.884 121.496 244.206 121.633 244.487 121.82C244.819 122.043 245.075 122.32 245.255 122.652C245.438 122.984 245.53 123.404 245.53 123.912ZM244.323 123.941C244.323 123.641 244.27 123.379 244.165 123.156C244.059 122.934 243.899 122.752 243.684 122.611C243.497 122.49 243.282 122.404 243.04 122.354C242.802 122.299 242.499 122.271 242.132 122.271H240.983V125.758H241.962C242.43 125.758 242.811 125.717 243.104 125.635C243.397 125.549 243.635 125.414 243.819 125.23C244.003 125.043 244.132 124.846 244.206 124.639C244.284 124.432 244.323 124.199 244.323 123.941ZM252.555 126.73C252.555 127.797 252.282 128.639 251.735 129.256C251.188 129.873 250.456 130.182 249.538 130.182C248.612 130.182 247.876 129.873 247.329 129.256C246.786 128.639 246.514 127.797 246.514 126.73C246.514 125.664 246.786 124.822 247.329 124.205C247.876 123.584 248.612 123.273 249.538 123.273C250.456 123.273 251.188 123.584 251.735 124.205C252.282 124.822 252.555 125.664 252.555 126.73ZM251.419 126.73C251.419 125.883 251.253 125.254 250.921 124.844C250.589 124.43 250.128 124.223 249.538 124.223C248.94 124.223 248.475 124.43 248.143 124.844C247.815 125.254 247.651 125.883 247.651 126.73C247.651 127.551 247.817 128.174 248.149 128.6C248.481 129.021 248.944 129.232 249.538 129.232C250.124 129.232 250.583 129.023 250.915 128.605C251.251 128.184 251.419 127.559 251.419 126.73ZM255.45 122.359H254.208V121.217H255.45V122.359ZM255.38 130H254.278V123.455H255.38V130ZM263.032 130H261.93V126.273C261.93 125.973 261.913 125.691 261.878 125.43C261.843 125.164 261.778 124.957 261.684 124.809C261.587 124.645 261.446 124.523 261.262 124.445C261.079 124.363 260.841 124.322 260.548 124.322C260.247 124.322 259.932 124.396 259.604 124.545C259.276 124.693 258.962 124.883 258.661 125.113V130H257.559V123.455H258.661V124.182C259.005 123.896 259.36 123.674 259.727 123.514C260.094 123.354 260.471 123.273 260.858 123.273C261.565 123.273 262.104 123.486 262.475 123.912C262.846 124.338 263.032 124.951 263.032 125.752V130ZM268.552 129.941C268.344 129.996 268.118 130.041 267.872 130.076C267.63 130.111 267.413 130.129 267.221 130.129C266.553 130.129 266.046 129.949 265.698 129.59C265.35 129.23 265.177 128.654 265.177 127.861V124.381H264.432V123.455H265.177V121.574H266.278V123.455H268.552V124.381H266.278V127.363C266.278 127.707 266.286 127.977 266.302 128.172C266.317 128.363 266.372 128.543 266.466 128.711C266.552 128.867 266.669 128.982 266.817 129.057C266.969 129.127 267.2 129.162 267.509 129.162C267.688 129.162 267.876 129.137 268.071 129.086C268.266 129.031 268.407 128.986 268.493 128.951H268.552V129.941Z" fill="white"/>
<path d="M5.39651 6.11328C5.39651 6.70443 5.2012 7.1875 4.81058 7.5625C4.42256 7.9349 3.94599 8.12109 3.38089 8.12109C3.09443 8.12109 2.83401 8.07682 2.59964 7.98828C2.36526 7.89974 2.15823 7.76823 1.97855 7.59375C1.75459 7.3776 1.58141 7.09115 1.45901 6.73438C1.33922 6.3776 1.27933 5.94792 1.27933 5.44531C1.27933 4.92969 1.33401 4.47266 1.44339 4.07422C1.55537 3.67578 1.73245 3.32161 1.97464 3.01172C2.20381 2.71745 2.49938 2.48828 2.86136 2.32422C3.22334 2.15755 3.64521 2.07422 4.12698 2.07422C4.28063 2.07422 4.40954 2.08073 4.5137 2.09375C4.61787 2.10677 4.72334 2.13021 4.83011 2.16406V2.91016H4.79105C4.71813 2.87109 4.60745 2.83464 4.45901 2.80078C4.31318 2.76432 4.16344 2.74609 4.0098 2.74609C3.4499 2.74609 3.00329 2.92188 2.66995 3.27344C2.33662 3.6224 2.14261 4.09505 2.08792 4.69141C2.30667 4.55859 2.52151 4.45833 2.73245 4.39062C2.94599 4.32031 3.19209 4.28516 3.47073 4.28516C3.71813 4.28516 3.93558 4.30859 4.12308 4.35547C4.31318 4.39974 4.50719 4.49089 4.70511 4.62891C4.93428 4.78776 5.10615 4.98828 5.22073 5.23047C5.33792 5.47266 5.39651 5.76693 5.39651 6.11328ZM4.60355 6.14453C4.60355 5.90234 4.56709 5.70182 4.49417 5.54297C4.42386 5.38411 4.30667 5.24609 4.14261 5.12891C4.02282 5.04557 3.89 4.99089 3.74417 4.96484C3.59834 4.9388 3.44599 4.92578 3.28714 4.92578C3.06579 4.92578 2.86006 4.95182 2.66995 5.00391C2.47985 5.05599 2.28454 5.13672 2.08401 5.24609C2.07881 5.30339 2.0749 5.35938 2.0723 5.41406C2.06969 5.46615 2.06839 5.53255 2.06839 5.61328C2.06839 6.02474 2.11006 6.35026 2.19339 6.58984C2.27933 6.82682 2.39651 7.01432 2.54495 7.15234C2.66474 7.26693 2.79365 7.35156 2.93167 7.40625C3.0723 7.45833 3.22464 7.48438 3.3887 7.48438C3.76631 7.48438 4.06318 7.36979 4.27933 7.14062C4.49547 6.90885 4.60355 6.57682 4.60355 6.14453ZM10.3887 5.08984C10.3887 6.13411 10.2246 6.90104 9.89651 7.39062C9.57099 7.8776 9.06448 8.12109 8.37698 8.12109C7.67907 8.12109 7.16865 7.8737 6.84573 7.37891C6.52542 6.88411 6.36526 6.1237 6.36526 5.09766C6.36526 4.0638 6.52803 3.30078 6.85355 2.80859C7.17907 2.3138 7.68688 2.06641 8.37698 2.06641C9.0749 2.06641 9.58401 2.31771 9.90433 2.82031C10.2272 3.32031 10.3887 4.07682 10.3887 5.08984ZM9.36136 6.86328C9.4525 6.65234 9.5137 6.40495 9.54495 6.12109C9.57881 5.83464 9.59573 5.49089 9.59573 5.08984C9.59573 4.69401 9.57881 4.35026 9.54495 4.05859C9.5137 3.76693 9.4512 3.51953 9.35745 3.31641C9.26631 3.11589 9.14131 2.96484 8.98245 2.86328C8.8262 2.76172 8.62438 2.71094 8.37698 2.71094C8.13219 2.71094 7.92907 2.76172 7.76761 2.86328C7.60875 2.96484 7.48245 3.11849 7.3887 3.32422C7.30016 3.51693 7.23896 3.76823 7.20511 4.07812C7.17386 4.38802 7.15823 4.72786 7.15823 5.09766C7.15823 5.50391 7.17256 5.84375 7.2012 6.11719C7.22985 6.39062 7.29105 6.63542 7.3848 6.85156C7.47073 7.05469 7.59183 7.20964 7.74808 7.31641C7.90693 7.42318 8.11657 7.47656 8.37698 7.47656C8.62178 7.47656 8.8249 7.42578 8.98636 7.32422C9.14782 7.22266 9.27282 7.06901 9.36136 6.86328ZM14.3692 3.79688C14.3692 4.38021 14.2455 4.8138 13.9981 5.09766C13.7533 5.38151 13.3991 5.52344 12.9356 5.52344C12.4616 5.52344 12.1035 5.38151 11.8614 5.09766C11.6192 4.8138 11.4981 4.38151 11.4981 3.80078C11.4981 3.21745 11.6218 2.78385 11.8692 2.5C12.1166 2.21615 12.472 2.07422 12.9356 2.07422C13.4069 2.07422 13.7637 2.21745 14.0059 2.50391C14.2481 2.79036 14.3692 3.22135 14.3692 3.79688ZM17.0684 2.18359L14.0215 8H13.377L16.4239 2.18359H17.0684ZM18.9434 6.38672C18.9434 6.97005 18.8197 7.40365 18.5723 7.6875C18.3249 7.97135 17.9694 8.11328 17.5059 8.11328C17.0345 8.11328 16.6778 7.97005 16.4356 7.68359C16.1934 7.39714 16.0723 6.96615 16.0723 6.39062C16.0723 5.80729 16.1947 5.3737 16.4395 5.08984C16.6869 4.80599 17.0423 4.66406 17.5059 4.66406C17.9798 4.66406 18.3379 4.80599 18.5801 5.08984C18.8223 5.3737 18.9434 5.80599 18.9434 6.38672ZM13.6739 3.79688C13.6739 3.34896 13.6153 3.03646 13.4981 2.85938C13.3835 2.68229 13.196 2.59375 12.9356 2.59375C12.67 2.59375 12.4798 2.68229 12.3653 2.85938C12.2507 3.03646 12.1934 3.35026 12.1934 3.80078C12.1934 4.2513 12.2507 4.5651 12.3653 4.74219C12.4798 4.91667 12.67 5.00391 12.9356 5.00391C13.196 5.00391 13.3835 4.91667 13.4981 4.74219C13.6153 4.5651 13.6739 4.25 13.6739 3.79688ZM18.2481 6.38672C18.2481 5.9388 18.1895 5.6263 18.0723 5.44922C17.9577 5.27214 17.7702 5.18359 17.5098 5.18359C17.2442 5.18359 17.0541 5.27214 16.9395 5.44922C16.8249 5.6263 16.7676 5.9401 16.7676 6.39062C16.7676 6.84115 16.8249 7.15495 16.9395 7.33203C17.0541 7.50651 17.2442 7.59375 17.5098 7.59375C17.7702 7.59375 17.9577 7.50651 18.0723 7.33203C18.1895 7.15495 18.2481 6.83984 18.2481 6.38672Z" fill="black"/>
<path d="M5.2637 47.1523C5.2637 47.4232 5.21422 47.6823 5.11526 47.9297C5.01631 48.1771 4.88089 48.3854 4.70901 48.5547C4.52151 48.737 4.29756 48.8776 4.03714 48.9766C3.77933 49.0729 3.47985 49.1211 3.1387 49.1211C2.82099 49.1211 2.515 49.0872 2.22073 49.0195C1.92646 48.9544 1.67776 48.875 1.47464 48.7812V47.957H1.52933C1.74287 48.0924 1.99287 48.2083 2.27933 48.3047C2.56579 48.3984 2.84704 48.4453 3.12308 48.4453C3.30797 48.4453 3.48636 48.4193 3.65823 48.3672C3.83271 48.3151 3.98766 48.224 4.12308 48.0938C4.23766 47.9818 4.3236 47.8477 4.38089 47.6914C4.44079 47.5352 4.47073 47.3542 4.47073 47.1484C4.47073 46.9479 4.43558 46.7786 4.36526 46.6406C4.29756 46.5026 4.2025 46.3919 4.08011 46.3086C3.94469 46.2096 3.77933 46.1406 3.58401 46.1016C3.39131 46.0599 3.17516 46.0391 2.93558 46.0391C2.70641 46.0391 2.48506 46.0547 2.27151 46.0859C2.06058 46.1172 1.87829 46.1484 1.72464 46.1797V43.1836H5.22464V43.8672H2.47855V45.4141C2.59053 45.4036 2.70511 45.3958 2.8223 45.3906C2.93948 45.3854 3.04105 45.3828 3.12698 45.3828C3.44209 45.3828 3.71813 45.4102 3.95511 45.4648C4.19209 45.5169 4.40954 45.6107 4.60745 45.7461C4.81579 45.8893 4.97724 46.0742 5.09183 46.3008C5.20641 46.5273 5.2637 46.8112 5.2637 47.1523ZM10.3887 46.0898C10.3887 47.1341 10.2246 47.901 9.89651 48.3906C9.57099 48.8776 9.06448 49.1211 8.37698 49.1211C7.67907 49.1211 7.16865 48.8737 6.84573 48.3789C6.52542 47.8841 6.36526 47.1237 6.36526 46.0977C6.36526 45.0638 6.52803 44.3008 6.85355 43.8086C7.17907 43.3138 7.68688 43.0664 8.37698 43.0664C9.0749 43.0664 9.58401 43.3177 9.90433 43.8203C10.2272 44.3203 10.3887 45.0768 10.3887 46.0898ZM9.36136 47.8633C9.4525 47.6523 9.5137 47.4049 9.54495 47.1211C9.57881 46.8346 9.59573 46.4909 9.59573 46.0898C9.59573 45.694 9.57881 45.3503 9.54495 45.0586C9.5137 44.7669 9.4512 44.5195 9.35745 44.3164C9.26631 44.1159 9.14131 43.9648 8.98245 43.8633C8.8262 43.7617 8.62438 43.7109 8.37698 43.7109C8.13219 43.7109 7.92907 43.7617 7.76761 43.8633C7.60875 43.9648 7.48245 44.1185 7.3887 44.3242C7.30016 44.5169 7.23896 44.7682 7.20511 45.0781C7.17386 45.388 7.15823 45.7279 7.15823 46.0977C7.15823 46.5039 7.17256 46.8438 7.2012 47.1172C7.22985 47.3906 7.29105 47.6354 7.3848 47.8516C7.47073 48.0547 7.59183 48.2096 7.74808 48.3164C7.90693 48.4232 8.11657 48.4766 8.37698 48.4766C8.62178 48.4766 8.8249 48.4258 8.98636 48.3242C9.14782 48.2227 9.27282 48.069 9.36136 47.8633ZM14.3692 44.7969C14.3692 45.3802 14.2455 45.8138 13.9981 46.0977C13.7533 46.3815 13.3991 46.5234 12.9356 46.5234C12.4616 46.5234 12.1035 46.3815 11.8614 46.0977C11.6192 45.8138 11.4981 45.3815 11.4981 44.8008C11.4981 44.2174 11.6218 43.7839 11.8692 43.5C12.1166 43.2161 12.472 43.0742 12.9356 43.0742C13.4069 43.0742 13.7637 43.2174 14.0059 43.5039C14.2481 43.7904 14.3692 44.2214 14.3692 44.7969ZM17.0684 43.1836L14.0215 49H13.377L16.4239 43.1836H17.0684ZM18.9434 47.3867C18.9434 47.9701 18.8197 48.4036 18.5723 48.6875C18.3249 48.9714 17.9694 49.1133 17.5059 49.1133C17.0345 49.1133 16.6778 48.9701 16.4356 48.6836C16.1934 48.3971 16.0723 47.9661 16.0723 47.3906C16.0723 46.8073 16.1947 46.3737 16.4395 46.0898C16.6869 45.806 17.0423 45.6641 17.5059 45.6641C17.9798 45.6641 18.3379 45.806 18.5801 46.0898C18.8223 46.3737 18.9434 46.806 18.9434 47.3867ZM13.6739 44.7969C13.6739 44.349 13.6153 44.0365 13.4981 43.8594C13.3835 43.6823 13.196 43.5938 12.9356 43.5938C12.67 43.5938 12.4798 43.6823 12.3653 43.8594C12.2507 44.0365 12.1934 44.3503 12.1934 44.8008C12.1934 45.2513 12.2507 45.5651 12.3653 45.7422C12.4798 45.9167 12.67 46.0039 12.9356 46.0039C13.196 46.0039 13.3835 45.9167 13.4981 45.7422C13.6153 45.5651 13.6739 45.25 13.6739 44.7969ZM18.2481 47.3867C18.2481 46.9388 18.1895 46.6263 18.0723 46.4492C17.9577 46.2721 17.7702 46.1836 17.5098 46.1836C17.2442 46.1836 17.0541 46.2721 16.9395 46.4492C16.8249 46.6263 16.7676 46.9401 16.7676 47.3906C16.7676 47.8411 16.8249 48.1549 16.9395 48.332C17.0541 48.5065 17.2442 48.5938 17.5098 48.5938C17.7702 48.5938 17.9577 48.5065 18.0723 48.332C18.1895 48.1549 18.2481 47.8398 18.2481 47.3867Z" fill="black"/>
<path d="M5.44339 88.3633H4.58011V90H3.83011V88.3633H1.04495V87.4648L3.86136 84.1836H4.58011V87.7383H5.44339V88.3633ZM3.83011 87.7383V85.1133L1.5762 87.7383H3.83011ZM10.3887 87.0898C10.3887 88.1341 10.2246 88.901 9.89651 89.3906C9.57099 89.8776 9.06448 90.1211 8.37698 90.1211C7.67907 90.1211 7.16865 89.8737 6.84573 89.3789C6.52542 88.8841 6.36526 88.1237 6.36526 87.0977C6.36526 86.0638 6.52803 85.3008 6.85355 84.8086C7.17907 84.3138 7.68688 84.0664 8.37698 84.0664C9.0749 84.0664 9.58401 84.3177 9.90433 84.8203C10.2272 85.3203 10.3887 86.0768 10.3887 87.0898ZM9.36136 88.8633C9.4525 88.6523 9.5137 88.4049 9.54495 88.1211C9.57881 87.8346 9.59573 87.4909 9.59573 87.0898C9.59573 86.694 9.57881 86.3503 9.54495 86.0586C9.5137 85.7669 9.4512 85.5195 9.35745 85.3164C9.26631 85.1159 9.14131 84.9648 8.98245 84.8633C8.8262 84.7617 8.62438 84.7109 8.37698 84.7109C8.13219 84.7109 7.92907 84.7617 7.76761 84.8633C7.60875 84.9648 7.48245 85.1185 7.3887 85.3242C7.30016 85.5169 7.23896 85.7682 7.20511 86.0781C7.17386 86.388 7.15823 86.7279 7.15823 87.0977C7.15823 87.5039 7.17256 87.8438 7.2012 88.1172C7.22985 88.3906 7.29105 88.6354 7.3848 88.8516C7.47073 89.0547 7.59183 89.2096 7.74808 89.3164C7.90693 89.4232 8.11657 89.4766 8.37698 89.4766C8.62178 89.4766 8.8249 89.4258 8.98636 89.3242C9.14782 89.2227 9.27282 89.069 9.36136 88.8633ZM14.3692 85.7969C14.3692 86.3802 14.2455 86.8138 13.9981 87.0977C13.7533 87.3815 13.3991 87.5234 12.9356 87.5234C12.4616 87.5234 12.1035 87.3815 11.8614 87.0977C11.6192 86.8138 11.4981 86.3815 11.4981 85.8008C11.4981 85.2174 11.6218 84.7839 11.8692 84.5C12.1166 84.2161 12.472 84.0742 12.9356 84.0742C13.4069 84.0742 13.7637 84.2174 14.0059 84.5039C14.2481 84.7904 14.3692 85.2214 14.3692 85.7969ZM17.0684 84.1836L14.0215 90H13.377L16.4239 84.1836H17.0684ZM18.9434 88.3867C18.9434 88.9701 18.8197 89.4036 18.5723 89.6875C18.3249 89.9714 17.9694 90.1133 17.5059 90.1133C17.0345 90.1133 16.6778 89.9701 16.4356 89.6836C16.1934 89.3971 16.0723 88.9661 16.0723 88.3906C16.0723 87.8073 16.1947 87.3737 16.4395 87.0898C16.6869 86.806 17.0423 86.6641 17.5059 86.6641C17.9798 86.6641 18.3379 86.806 18.5801 87.0898C18.8223 87.3737 18.9434 87.806 18.9434 88.3867ZM13.6739 85.7969C13.6739 85.349 13.6153 85.0365 13.4981 84.8594C13.3835 84.6823 13.196 84.5938 12.9356 84.5938C12.67 84.5938 12.4798 84.6823 12.3653 84.8594C12.2507 85.0365 12.1934 85.3503 12.1934 85.8008C12.1934 86.2513 12.2507 86.5651 12.3653 86.7422C12.4798 86.9167 12.67 87.0039 12.9356 87.0039C13.196 87.0039 13.3835 86.9167 13.4981 86.7422C13.6153 86.5651 13.6739 86.25 13.6739 85.7969ZM18.2481 88.3867C18.2481 87.9388 18.1895 87.6263 18.0723 87.4492C17.9577 87.2721 17.7702 87.1836 17.5098 87.1836C17.2442 87.1836 17.0541 87.2721 16.9395 87.4492C16.8249 87.6263 16.7676 87.9401 16.7676 88.3906C16.7676 88.8411 16.8249 89.1549 16.9395 89.332C17.0541 89.5065 17.2442 89.5938 17.5098 89.5938C17.7702 89.5938 17.9577 89.5065 18.0723 89.332C18.1895 89.1549 18.2481 88.8398 18.2481 88.3867Z" fill="black"/>
<path d="M5.31058 172H1.37308V171.184C1.64651 170.949 1.91995 170.715 2.19339 170.48C2.46943 170.246 2.72594 170.013 2.96292 169.781C3.46292 169.297 3.80537 168.913 3.99026 168.629C4.17516 168.342 4.26761 168.034 4.26761 167.703C4.26761 167.401 4.16735 167.165 3.96683 166.996C3.76891 166.824 3.49157 166.738 3.1348 166.738C2.89782 166.738 2.64131 166.78 2.36526 166.863C2.08922 166.947 1.81969 167.074 1.55667 167.246H1.51761V166.426C1.7025 166.335 1.9486 166.251 2.25589 166.176C2.56579 166.1 2.86526 166.062 3.15433 166.062C3.75068 166.062 4.21813 166.207 4.55667 166.496C4.89521 166.783 5.06448 167.172 5.06448 167.664C5.06448 167.885 5.03584 168.092 4.97855 168.285C4.92386 168.475 4.84183 168.656 4.73245 168.828C4.63089 168.99 4.5111 169.148 4.37308 169.305C4.23766 169.461 4.0723 169.634 3.87698 169.824C3.59834 170.098 3.31058 170.363 3.0137 170.621C2.71683 170.876 2.43948 171.113 2.18167 171.332H5.31058V172ZM10.3887 169.09C10.3887 170.134 10.2246 170.901 9.89651 171.391C9.57099 171.878 9.06448 172.121 8.37698 172.121C7.67907 172.121 7.16865 171.874 6.84573 171.379C6.52542 170.884 6.36526 170.124 6.36526 169.098C6.36526 168.064 6.52803 167.301 6.85355 166.809C7.17907 166.314 7.68688 166.066 8.37698 166.066C9.0749 166.066 9.58401 166.318 9.90433 166.82C10.2272 167.32 10.3887 168.077 10.3887 169.09ZM9.36136 170.863C9.4525 170.652 9.5137 170.405 9.54495 170.121C9.57881 169.835 9.59573 169.491 9.59573 169.09C9.59573 168.694 9.57881 168.35 9.54495 168.059C9.5137 167.767 9.4512 167.52 9.35745 167.316C9.26631 167.116 9.14131 166.965 8.98245 166.863C8.8262 166.762 8.62438 166.711 8.37698 166.711C8.13219 166.711 7.92907 166.762 7.76761 166.863C7.60875 166.965 7.48245 167.118 7.3887 167.324C7.30016 167.517 7.23896 167.768 7.20511 168.078C7.17386 168.388 7.15823 168.728 7.15823 169.098C7.15823 169.504 7.17256 169.844 7.2012 170.117C7.22985 170.391 7.29105 170.635 7.3848 170.852C7.47073 171.055 7.59183 171.21 7.74808 171.316C7.90693 171.423 8.11657 171.477 8.37698 171.477C8.62178 171.477 8.8249 171.426 8.98636 171.324C9.14782 171.223 9.27282 171.069 9.36136 170.863ZM14.3692 167.797C14.3692 168.38 14.2455 168.814 13.9981 169.098C13.7533 169.382 13.3991 169.523 12.9356 169.523C12.4616 169.523 12.1035 169.382 11.8614 169.098C11.6192 168.814 11.4981 168.382 11.4981 167.801C11.4981 167.217 11.6218 166.784 11.8692 166.5C12.1166 166.216 12.472 166.074 12.9356 166.074C13.4069 166.074 13.7637 166.217 14.0059 166.504C14.2481 166.79 14.3692 167.221 14.3692 167.797ZM17.0684 166.184L14.0215 172H13.377L16.4239 166.184H17.0684ZM18.9434 170.387C18.9434 170.97 18.8197 171.404 18.5723 171.688C18.3249 171.971 17.9694 172.113 17.5059 172.113C17.0345 172.113 16.6778 171.97 16.4356 171.684C16.1934 171.397 16.0723 170.966 16.0723 170.391C16.0723 169.807 16.1947 169.374 16.4395 169.09C16.6869 168.806 17.0423 168.664 17.5059 168.664C17.9798 168.664 18.3379 168.806 18.5801 169.09C18.8223 169.374 18.9434 169.806 18.9434 170.387ZM13.6739 167.797C13.6739 167.349 13.6153 167.036 13.4981 166.859C13.3835 166.682 13.196 166.594 12.9356 166.594C12.67 166.594 12.4798 166.682 12.3653 166.859C12.2507 167.036 12.1934 167.35 12.1934 167.801C12.1934 168.251 12.2507 168.565 12.3653 168.742C12.4798 168.917 12.67 169.004 12.9356 169.004C13.196 169.004 13.3835 168.917 13.4981 168.742C13.6153 168.565 13.6739 168.25 13.6739 167.797ZM18.2481 170.387C18.2481 169.939 18.1895 169.626 18.0723 169.449C17.9577 169.272 17.7702 169.184 17.5098 169.184C17.2442 169.184 17.0541 169.272 16.9395 169.449C16.8249 169.626 16.7676 169.94 16.7676 170.391C16.7676 170.841 16.8249 171.155 16.9395 171.332C17.0541 171.507 17.2442 171.594 17.5098 171.594C17.7702 171.594 17.9577 171.507 18.0723 171.332C18.1895 171.155 18.2481 170.84 18.2481 170.387Z" fill="black"/>
<path d="M4.97855 213H1.83011V212.406H3.04105V208.508H1.83011V207.977C1.99417 207.977 2.16995 207.964 2.35745 207.938C2.54495 207.909 2.68688 207.868 2.78323 207.816C2.90303 207.751 2.99678 207.669 3.06448 207.57C3.1348 207.469 3.17516 207.333 3.18558 207.164H3.79105V212.406H4.97855V213ZM10.3887 210.09C10.3887 211.134 10.2246 211.901 9.89651 212.391C9.57099 212.878 9.06448 213.121 8.37698 213.121C7.67907 213.121 7.16865 212.874 6.84573 212.379C6.52542 211.884 6.36526 211.124 6.36526 210.098C6.36526 209.064 6.52803 208.301 6.85355 207.809C7.17907 207.314 7.68688 207.066 8.37698 207.066C9.0749 207.066 9.58401 207.318 9.90433 207.82C10.2272 208.32 10.3887 209.077 10.3887 210.09ZM9.36136 211.863C9.4525 211.652 9.5137 211.405 9.54495 211.121C9.57881 210.835 9.59573 210.491 9.59573 210.09C9.59573 209.694 9.57881 209.35 9.54495 209.059C9.5137 208.767 9.4512 208.52 9.35745 208.316C9.26631 208.116 9.14131 207.965 8.98245 207.863C8.8262 207.762 8.62438 207.711 8.37698 207.711C8.13219 207.711 7.92907 207.762 7.76761 207.863C7.60875 207.965 7.48245 208.118 7.3887 208.324C7.30016 208.517 7.23896 208.768 7.20511 209.078C7.17386 209.388 7.15823 209.728 7.15823 210.098C7.15823 210.504 7.17256 210.844 7.2012 211.117C7.22985 211.391 7.29105 211.635 7.3848 211.852C7.47073 212.055 7.59183 212.21 7.74808 212.316C7.90693 212.423 8.11657 212.477 8.37698 212.477C8.62178 212.477 8.8249 212.426 8.98636 212.324C9.14782 212.223 9.27282 212.069 9.36136 211.863ZM14.3692 208.797C14.3692 209.38 14.2455 209.814 13.9981 210.098C13.7533 210.382 13.3991 210.523 12.9356 210.523C12.4616 210.523 12.1035 210.382 11.8614 210.098C11.6192 209.814 11.4981 209.382 11.4981 208.801C11.4981 208.217 11.6218 207.784 11.8692 207.5C12.1166 207.216 12.472 207.074 12.9356 207.074C13.4069 207.074 13.7637 207.217 14.0059 207.504C14.2481 207.79 14.3692 208.221 14.3692 208.797ZM17.0684 207.184L14.0215 213H13.377L16.4239 207.184H17.0684ZM18.9434 211.387C18.9434 211.97 18.8197 212.404 18.5723 212.688C18.3249 212.971 17.9694 213.113 17.5059 213.113C17.0345 213.113 16.6778 212.97 16.4356 212.684C16.1934 212.397 16.0723 211.966 16.0723 211.391C16.0723 210.807 16.1947 210.374 16.4395 210.09C16.6869 209.806 17.0423 209.664 17.5059 209.664C17.9798 209.664 18.3379 209.806 18.5801 210.09C18.8223 210.374 18.9434 210.806 18.9434 211.387ZM13.6739 208.797C13.6739 208.349 13.6153 208.036 13.4981 207.859C13.3835 207.682 13.196 207.594 12.9356 207.594C12.67 207.594 12.4798 207.682 12.3653 207.859C12.2507 208.036 12.1934 208.35 12.1934 208.801C12.1934 209.251 12.2507 209.565 12.3653 209.742C12.4798 209.917 12.67 210.004 12.9356 210.004C13.196 210.004 13.3835 209.917 13.4981 209.742C13.6153 209.565 13.6739 209.25 13.6739 208.797ZM18.2481 211.387C18.2481 210.939 18.1895 210.626 18.0723 210.449C17.9577 210.272 17.7702 210.184 17.5098 210.184C17.2442 210.184 17.0541 210.272 16.9395 210.449C16.8249 210.626 16.7676 210.94 16.7676 211.391C16.7676 211.841 16.8249 212.155 16.9395 212.332C17.0541 212.507 17.2442 212.594 17.5098 212.594C17.7702 212.594 17.9577 212.507 18.0723 212.332C18.1895 212.155 18.2481 211.84 18.2481 211.387Z" fill="black"/>
<path d="M4.79886 128.199C4.92386 128.311 5.02672 128.452 5.10745 128.621C5.18818 128.79 5.22855 129.009 5.22855 129.277C5.22855 129.543 5.18037 129.786 5.08401 130.008C4.98766 130.229 4.85224 130.422 4.67776 130.586C4.48245 130.768 4.25198 130.904 3.98636 130.992C3.72334 131.078 3.43428 131.121 3.11917 131.121C2.79625 131.121 2.47855 131.082 2.16605 131.004C1.85355 130.928 1.59704 130.845 1.39651 130.754V129.938H1.45511C1.67646 130.083 1.93688 130.204 2.23636 130.301C2.53584 130.397 2.8249 130.445 3.10355 130.445C3.26761 130.445 3.44209 130.418 3.62698 130.363C3.81188 130.309 3.96162 130.228 4.0762 130.121C4.19599 130.007 4.28454 129.88 4.34183 129.742C4.40172 129.604 4.43167 129.43 4.43167 129.219C4.43167 129.01 4.39782 128.839 4.33011 128.703C4.265 128.565 4.17386 128.457 4.05667 128.379C3.93948 128.298 3.79756 128.243 3.63089 128.215C3.46422 128.184 3.28454 128.168 3.09183 128.168H2.74026V127.52H3.0137C3.40954 127.52 3.72464 127.438 3.95901 127.273C4.19599 127.107 4.31448 126.865 4.31448 126.547C4.31448 126.406 4.28454 126.284 4.22464 126.18C4.16474 126.073 4.08141 125.986 3.97464 125.918C3.86266 125.85 3.74287 125.803 3.61526 125.777C3.48766 125.751 3.34313 125.738 3.18167 125.738C2.93428 125.738 2.67125 125.783 2.39261 125.871C2.11396 125.96 1.85094 126.085 1.60355 126.246H1.56448V125.43C1.74938 125.339 1.99547 125.255 2.30276 125.18C2.61266 125.102 2.91214 125.062 3.2012 125.062C3.48506 125.062 3.73506 125.089 3.9512 125.141C4.16735 125.193 4.36266 125.276 4.53714 125.391C4.72464 125.516 4.86657 125.667 4.96292 125.844C5.05928 126.021 5.10745 126.228 5.10745 126.465C5.10745 126.788 4.99287 127.07 4.7637 127.312C4.53714 127.552 4.26891 127.703 3.95901 127.766V127.82C4.08401 127.841 4.22724 127.885 4.3887 127.953C4.55016 128.018 4.68688 128.1 4.79886 128.199ZM10.3887 128.09C10.3887 129.134 10.2246 129.901 9.89651 130.391C9.57099 130.878 9.06448 131.121 8.37698 131.121C7.67907 131.121 7.16865 130.874 6.84573 130.379C6.52542 129.884 6.36526 129.124 6.36526 128.098C6.36526 127.064 6.52803 126.301 6.85355 125.809C7.17907 125.314 7.68688 125.066 8.37698 125.066C9.0749 125.066 9.58401 125.318 9.90433 125.82C10.2272 126.32 10.3887 127.077 10.3887 128.09ZM9.36136 129.863C9.4525 129.652 9.5137 129.405 9.54495 129.121C9.57881 128.835 9.59573 128.491 9.59573 128.09C9.59573 127.694 9.57881 127.35 9.54495 127.059C9.5137 126.767 9.4512 126.52 9.35745 126.316C9.26631 126.116 9.14131 125.965 8.98245 125.863C8.8262 125.762 8.62438 125.711 8.37698 125.711C8.13219 125.711 7.92907 125.762 7.76761 125.863C7.60875 125.965 7.48245 126.118 7.3887 126.324C7.30016 126.517 7.23896 126.768 7.20511 127.078C7.17386 127.388 7.15823 127.728 7.15823 128.098C7.15823 128.504 7.17256 128.844 7.2012 129.117C7.22985 129.391 7.29105 129.635 7.3848 129.852C7.47073 130.055 7.59183 130.21 7.74808 130.316C7.90693 130.423 8.11657 130.477 8.37698 130.477C8.62178 130.477 8.8249 130.426 8.98636 130.324C9.14782 130.223 9.27282 130.069 9.36136 129.863ZM14.3692 126.797C14.3692 127.38 14.2455 127.814 13.9981 128.098C13.7533 128.382 13.3991 128.523 12.9356 128.523C12.4616 128.523 12.1035 128.382 11.8614 128.098C11.6192 127.814 11.4981 127.382 11.4981 126.801C11.4981 126.217 11.6218 125.784 11.8692 125.5C12.1166 125.216 12.472 125.074 12.9356 125.074C13.4069 125.074 13.7637 125.217 14.0059 125.504C14.2481 125.79 14.3692 126.221 14.3692 126.797ZM17.0684 125.184L14.0215 131H13.377L16.4239 125.184H17.0684ZM18.9434 129.387C18.9434 129.97 18.8197 130.404 18.5723 130.688C18.3249 130.971 17.9694 131.113 17.5059 131.113C17.0345 131.113 16.6778 130.97 16.4356 130.684C16.1934 130.397 16.0723 129.966 16.0723 129.391C16.0723 128.807 16.1947 128.374 16.4395 128.09C16.6869 127.806 17.0423 127.664 17.5059 127.664C17.9798 127.664 18.3379 127.806 18.5801 128.09C18.8223 128.374 18.9434 128.806 18.9434 129.387ZM13.6739 126.797C13.6739 126.349 13.6153 126.036 13.4981 125.859C13.3835 125.682 13.196 125.594 12.9356 125.594C12.67 125.594 12.4798 125.682 12.3653 125.859C12.2507 126.036 12.1934 126.35 12.1934 126.801C12.1934 127.251 12.2507 127.565 12.3653 127.742C12.4798 127.917 12.67 128.004 12.9356 128.004C13.196 128.004 13.3835 127.917 13.4981 127.742C13.6153 127.565 13.6739 127.25 13.6739 126.797ZM18.2481 129.387C18.2481 128.939 18.1895 128.626 18.0723 128.449C17.9577 128.272 17.7702 128.184 17.5098 128.184C17.2442 128.184 17.0541 128.272 16.9395 128.449C16.8249 128.626 16.7676 128.94 16.7676 129.391C16.7676 129.841 16.8249 130.155 16.9395 130.332C17.0541 130.507 17.2442 130.594 17.5098 130.594C17.7702 130.594 17.9577 130.507 18.0723 130.332C18.1895 130.155 18.2481 129.84 18.2481 129.387Z" fill="black"/>
<path d="M65.4747 262.631C65.3493 262.686 65.2354 262.737 65.1329 262.785C65.0326 262.833 64.9005 262.883 64.7364 262.935C64.5974 262.978 64.4459 263.015 64.2818 263.044C64.12 263.076 63.9411 263.092 63.7452 263.092C63.376 263.092 63.0399 263.041 62.7369 262.938C62.4361 262.834 62.1741 262.671 61.9507 262.45C61.732 262.233 61.5611 261.959 61.438 261.626C61.315 261.291 61.2535 260.903 61.2535 260.46C61.2535 260.041 61.3127 259.666 61.4312 259.336C61.5497 259.006 61.7206 258.726 61.9439 258.499C62.1604 258.278 62.4213 258.109 62.7266 257.993C63.0342 257.876 63.3749 257.818 63.7486 257.818C64.022 257.818 64.2943 257.851 64.5655 257.917C64.8389 257.984 65.142 258.1 65.4747 258.266V259.069H65.4234C65.1431 258.835 64.8651 258.664 64.5894 258.557C64.3137 258.45 64.0186 258.396 63.7042 258.396C63.4467 258.396 63.2143 258.438 63.0069 258.522C62.8018 258.604 62.6184 258.733 62.4566 258.909C62.2994 259.08 62.1763 259.296 62.0875 259.558C62.0009 259.818 61.9576 260.119 61.9576 260.46C61.9576 260.818 62.0054 261.126 62.1011 261.383C62.1991 261.641 62.3244 261.85 62.4771 262.012C62.6366 262.181 62.8223 262.306 63.0342 262.388C63.2484 262.468 63.474 262.508 63.711 262.508C64.0368 262.508 64.3422 262.452 64.627 262.34C64.9118 262.229 65.1784 262.061 65.4268 261.838H65.4747V262.631ZM67.0298 263H66.3873V257.682H67.0298V263ZM71.2681 263H70.629V262.593C70.572 262.632 70.4945 262.687 70.3965 262.757C70.3008 262.826 70.2074 262.88 70.1163 262.921C70.0092 262.974 69.8861 263.017 69.7471 263.051C69.6081 263.088 69.4452 263.106 69.2584 263.106C68.9143 263.106 68.6226 262.992 68.3834 262.764C68.1441 262.536 68.0245 262.246 68.0245 261.893C68.0245 261.603 68.086 261.37 68.209 261.192C68.3344 261.012 68.5121 260.871 68.7422 260.768C68.9747 260.666 69.2538 260.596 69.5797 260.56C69.9055 260.523 70.2553 260.496 70.629 260.478V260.378C70.629 260.233 70.6028 260.112 70.5504 260.016C70.5002 259.92 70.4273 259.845 70.3316 259.791C70.2405 259.738 70.1311 259.703 70.0035 259.685C69.8759 259.666 69.7426 259.657 69.6036 259.657C69.435 259.657 69.247 259.68 69.0396 259.726C68.8323 259.769 68.6181 259.833 68.397 259.917H68.3629V259.264C68.4882 259.23 68.6693 259.192 68.9063 259.151C69.1433 259.11 69.3769 259.09 69.607 259.09C69.8759 259.09 70.1094 259.113 70.3077 259.158C70.5082 259.201 70.6814 259.277 70.8272 259.384C70.9708 259.489 71.0801 259.624 71.1553 259.791C71.2305 259.957 71.2681 260.163 71.2681 260.409V263ZM70.629 262.06V260.997C70.433 261.008 70.2017 261.026 69.9351 261.048C69.6708 261.071 69.4612 261.104 69.3062 261.147C69.1216 261.2 68.9724 261.282 68.8585 261.394C68.7445 261.503 68.6876 261.654 68.6876 261.848C68.6876 262.067 68.7536 262.232 68.8858 262.344C69.018 262.453 69.2196 262.508 69.4908 262.508C69.7164 262.508 69.9226 262.465 70.1094 262.378C70.2963 262.289 70.4695 262.183 70.629 262.06ZM75.233 261.899C75.233 262.248 75.0883 262.534 74.7989 262.757C74.5118 262.981 74.1187 263.092 73.6197 263.092C73.3371 263.092 73.0774 263.059 72.8404 262.993C72.6057 262.925 72.4086 262.851 72.2491 262.771V262.05H72.2833C72.4861 262.202 72.7116 262.324 72.96 262.416C73.2084 262.504 73.4465 262.549 73.6744 262.549C73.9569 262.549 74.178 262.503 74.3375 262.412C74.497 262.321 74.5767 262.177 74.5767 261.981C74.5767 261.831 74.5334 261.717 74.4468 261.64C74.3602 261.562 74.1939 261.496 73.9478 261.441C73.8567 261.421 73.737 261.397 73.5889 261.37C73.4431 261.342 73.3098 261.313 73.189 261.281C72.8541 261.192 72.6159 261.062 72.4747 260.891C72.3357 260.718 72.2662 260.506 72.2662 260.255C72.2662 260.098 72.2981 259.95 72.3619 259.811C72.428 259.672 72.5271 259.548 72.6592 259.438C72.7868 259.331 72.9486 259.247 73.1446 259.186C73.3428 259.122 73.5639 259.09 73.8077 259.09C74.0355 259.09 74.2657 259.118 74.4981 259.175C74.7328 259.23 74.9276 259.297 75.0826 259.377V260.064H75.0484C74.8843 259.943 74.685 259.842 74.4503 259.76C74.2156 259.675 73.9854 259.633 73.7598 259.633C73.5251 259.633 73.3269 259.679 73.1651 259.77C73.0033 259.859 72.9224 259.992 72.9224 260.17C72.9224 260.327 72.9714 260.446 73.0694 260.525C73.1651 260.605 73.32 260.67 73.5342 260.72C73.6527 260.748 73.7849 260.775 73.9307 260.802C74.0788 260.83 74.2019 260.855 74.2999 260.877C74.5984 260.946 74.8285 261.063 74.9903 261.229C75.1521 261.398 75.233 261.621 75.233 261.899ZM78.8834 261.899C78.8834 262.248 78.7387 262.534 78.4493 262.757C78.1622 262.981 77.7691 263.092 77.2701 263.092C76.9875 263.092 76.7278 263.059 76.4908 262.993C76.2561 262.925 76.059 262.851 75.8995 262.771V262.05H75.9337C76.1365 262.202 76.362 262.324 76.6104 262.416C76.8588 262.504 77.0969 262.549 77.3248 262.549C77.6073 262.549 77.8283 262.503 77.9879 262.412C78.1474 262.321 78.2271 262.177 78.2271 261.981C78.2271 261.831 78.1838 261.717 78.0972 261.64C78.0106 261.562 77.8443 261.496 77.5982 261.441C77.5071 261.421 77.3874 261.397 77.2393 261.37C77.0935 261.342 76.9602 261.313 76.8394 261.281C76.5045 261.192 76.2663 261.062 76.1251 260.891C75.9861 260.718 75.9166 260.506 75.9166 260.255C75.9166 260.098 75.9485 259.95 76.0123 259.811C76.0783 259.672 76.1775 259.548 76.3096 259.438C76.4372 259.331 76.599 259.247 76.795 259.186C76.9932 259.122 77.2143 259.09 77.4581 259.09C77.6859 259.09 77.9161 259.118 78.1485 259.175C78.3832 259.23 78.578 259.297 78.733 259.377V260.064H78.6988C78.5347 259.943 78.3353 259.842 78.1006 259.76C77.8659 259.675 77.6358 259.633 77.4102 259.633C77.1755 259.633 76.9773 259.679 76.8155 259.77C76.6537 259.859 76.5728 259.992 76.5728 260.17C76.5728 260.327 76.6218 260.446 76.7198 260.525C76.8155 260.605 76.9704 260.67 77.1846 260.72C77.3031 260.748 77.4353 260.775 77.5811 260.802C77.7292 260.83 77.8523 260.855 77.9503 260.877C78.2488 260.946 78.4789 261.063 78.6407 261.229C78.8025 261.398 78.8834 261.621 78.8834 261.899ZM86.3311 263H85.6099L85.1109 261.582H82.9097L82.4107 263H81.7237L83.5762 257.911H84.4786L86.3311 263ZM84.9024 261L84.0103 258.502L83.1148 261H84.9024Z" fill="#2E3A59"/>
<path d="M112.475 262.631C112.349 262.686 112.235 262.737 112.133 262.785C112.033 262.833 111.9 262.883 111.736 262.935C111.597 262.978 111.446 263.015 111.282 263.044C111.12 263.076 110.941 263.092 110.745 263.092C110.376 263.092 110.04 263.041 109.737 262.938C109.436 262.834 109.174 262.671 108.951 262.45C108.732 262.233 108.561 261.959 108.438 261.626C108.315 261.291 108.253 260.903 108.253 260.46C108.253 260.041 108.313 259.666 108.431 259.336C108.55 259.006 108.721 258.726 108.944 258.499C109.16 258.278 109.421 258.109 109.727 257.993C110.034 257.876 110.375 257.818 110.749 257.818C111.022 257.818 111.294 257.851 111.565 257.917C111.839 257.984 112.142 258.1 112.475 258.266V259.069H112.423C112.143 258.835 111.865 258.664 111.589 258.557C111.314 258.45 111.019 258.396 110.704 258.396C110.447 258.396 110.214 258.438 110.007 258.522C109.802 258.604 109.618 258.733 109.457 258.909C109.299 259.08 109.176 259.296 109.087 259.558C109.001 259.818 108.958 260.119 108.958 260.46C108.958 260.818 109.005 261.126 109.101 261.383C109.199 261.641 109.324 261.85 109.477 262.012C109.637 262.181 109.822 262.306 110.034 262.388C110.248 262.468 110.474 262.508 110.711 262.508C111.037 262.508 111.342 262.452 111.627 262.34C111.912 262.229 112.178 262.061 112.427 261.838H112.475V262.631ZM114.03 263H113.387V257.682H114.03V263ZM118.268 263H117.629V262.593C117.572 262.632 117.495 262.687 117.397 262.757C117.301 262.826 117.207 262.88 117.116 262.921C117.009 262.974 116.886 263.017 116.747 263.051C116.608 263.088 116.445 263.106 116.258 263.106C115.914 263.106 115.623 262.992 115.383 262.764C115.144 262.536 115.024 262.246 115.024 261.893C115.024 261.603 115.086 261.37 115.209 261.192C115.334 261.012 115.512 260.871 115.742 260.768C115.975 260.666 116.254 260.596 116.58 260.56C116.905 260.523 117.255 260.496 117.629 260.478V260.378C117.629 260.233 117.603 260.112 117.55 260.016C117.5 259.92 117.427 259.845 117.332 259.791C117.24 259.738 117.131 259.703 117.003 259.685C116.876 259.666 116.743 259.657 116.604 259.657C116.435 259.657 116.247 259.68 116.04 259.726C115.832 259.769 115.618 259.833 115.397 259.917H115.363V259.264C115.488 259.23 115.669 259.192 115.906 259.151C116.143 259.11 116.377 259.09 116.607 259.09C116.876 259.09 117.109 259.113 117.308 259.158C117.508 259.201 117.681 259.277 117.827 259.384C117.971 259.489 118.08 259.624 118.155 259.791C118.231 259.957 118.268 260.163 118.268 260.409V263ZM117.629 262.06V260.997C117.433 261.008 117.202 261.026 116.935 261.048C116.671 261.071 116.461 261.104 116.306 261.147C116.122 261.2 115.972 261.282 115.858 261.394C115.745 261.503 115.688 261.654 115.688 261.848C115.688 262.067 115.754 262.232 115.886 262.344C116.018 262.453 116.22 262.508 116.491 262.508C116.716 262.508 116.923 262.465 117.109 262.378C117.296 262.289 117.469 262.183 117.629 262.06ZM122.233 261.899C122.233 262.248 122.088 262.534 121.799 262.757C121.512 262.981 121.119 263.092 120.62 263.092C120.337 263.092 120.077 263.059 119.84 262.993C119.606 262.925 119.409 262.851 119.249 262.771V262.05H119.283C119.486 262.202 119.712 262.324 119.96 262.416C120.208 262.504 120.447 262.549 120.674 262.549C120.957 262.549 121.178 262.503 121.337 262.412C121.497 262.321 121.577 262.177 121.577 261.981C121.577 261.831 121.533 261.717 121.447 261.64C121.36 261.562 121.194 261.496 120.948 261.441C120.857 261.421 120.737 261.397 120.589 261.37C120.443 261.342 120.31 261.313 120.189 261.281C119.854 261.192 119.616 261.062 119.475 260.891C119.336 260.718 119.266 260.506 119.266 260.255C119.266 260.098 119.298 259.95 119.362 259.811C119.428 259.672 119.527 259.548 119.659 259.438C119.787 259.331 119.949 259.247 120.145 259.186C120.343 259.122 120.564 259.09 120.808 259.09C121.036 259.09 121.266 259.118 121.498 259.175C121.733 259.23 121.928 259.297 122.083 259.377V260.064H122.048C121.884 259.943 121.685 259.842 121.45 259.76C121.216 259.675 120.985 259.633 120.76 259.633C120.525 259.633 120.327 259.679 120.165 259.77C120.003 259.859 119.922 259.992 119.922 260.17C119.922 260.327 119.971 260.446 120.069 260.525C120.165 260.605 120.32 260.67 120.534 260.72C120.653 260.748 120.785 260.775 120.931 260.802C121.079 260.83 121.202 260.855 121.3 260.877C121.598 260.946 121.829 261.063 121.99 261.229C122.152 261.398 122.233 261.621 122.233 261.899ZM125.883 261.899C125.883 262.248 125.739 262.534 125.449 262.757C125.162 262.981 124.769 263.092 124.27 263.092C123.988 263.092 123.728 263.059 123.491 262.993C123.256 262.925 123.059 262.851 122.899 262.771V262.05H122.934C123.136 262.202 123.362 262.324 123.61 262.416C123.859 262.504 124.097 262.549 124.325 262.549C124.607 262.549 124.828 262.503 124.988 262.412C125.147 262.321 125.227 262.177 125.227 261.981C125.227 261.831 125.184 261.717 125.097 261.64C125.011 261.562 124.844 261.496 124.598 261.441C124.507 261.421 124.387 261.397 124.239 261.37C124.093 261.342 123.96 261.313 123.839 261.281C123.504 261.192 123.266 261.062 123.125 260.891C122.986 260.718 122.917 260.506 122.917 260.255C122.917 260.098 122.948 259.95 123.012 259.811C123.078 259.672 123.177 259.548 123.31 259.438C123.437 259.331 123.599 259.247 123.795 259.186C123.993 259.122 124.214 259.09 124.458 259.09C124.686 259.09 124.916 259.118 125.148 259.175C125.383 259.23 125.578 259.297 125.733 259.377V260.064H125.699C125.535 259.943 125.335 259.842 125.101 259.76C124.866 259.675 124.636 259.633 124.41 259.633C124.176 259.633 123.977 259.679 123.815 259.77C123.654 259.859 123.573 259.992 123.573 260.17C123.573 260.327 123.622 260.446 123.72 260.525C123.815 260.605 123.97 260.67 124.185 260.72C124.303 260.748 124.435 260.775 124.581 260.802C124.729 260.83 124.852 260.855 124.95 260.877C125.249 260.946 125.479 261.063 125.641 261.229C125.802 261.398 125.883 261.621 125.883 261.899ZM133.157 261.435C133.157 261.688 133.109 261.911 133.013 262.104C132.918 262.298 132.789 262.458 132.627 262.583C132.436 262.733 132.225 262.84 131.995 262.904C131.767 262.968 131.476 263 131.123 263H129.318V257.911H130.826C131.197 257.911 131.475 257.924 131.66 257.952C131.844 257.979 132.021 258.036 132.19 258.123C132.376 258.221 132.512 258.347 132.596 258.502C132.681 258.655 132.723 258.838 132.723 259.052C132.723 259.294 132.661 259.5 132.538 259.671C132.415 259.84 132.251 259.975 132.046 260.078V260.105C132.39 260.176 132.661 260.327 132.859 260.56C133.058 260.79 133.157 261.081 133.157 261.435ZM132.019 259.141C132.019 259.018 131.998 258.914 131.957 258.83C131.916 258.746 131.85 258.677 131.759 258.625C131.652 258.563 131.522 258.526 131.369 258.512C131.217 258.496 131.027 258.488 130.802 258.488H129.995V259.958H130.87C131.082 259.958 131.251 259.948 131.376 259.927C131.501 259.904 131.618 259.859 131.725 259.791C131.832 259.722 131.907 259.634 131.95 259.527C131.996 259.418 132.019 259.289 132.019 259.141ZM132.453 261.462C132.453 261.257 132.422 261.094 132.36 260.973C132.299 260.852 132.187 260.75 132.025 260.666C131.916 260.609 131.783 260.572 131.626 260.556C131.471 260.538 131.281 260.529 131.058 260.529H129.995V262.422H130.891C131.187 262.422 131.43 262.408 131.619 262.378C131.808 262.346 131.963 262.289 132.084 262.207C132.211 262.118 132.305 262.017 132.364 261.903C132.423 261.789 132.453 261.642 132.453 261.462Z" fill="#2E3A59"/>
<path d="M159.475 262.631C159.349 262.686 159.235 262.737 159.133 262.785C159.033 262.833 158.9 262.883 158.736 262.935C158.597 262.978 158.446 263.015 158.282 263.044C158.12 263.076 157.941 263.092 157.745 263.092C157.376 263.092 157.04 263.041 156.737 262.938C156.436 262.834 156.174 262.671 155.951 262.45C155.732 262.233 155.561 261.959 155.438 261.626C155.315 261.291 155.253 260.903 155.253 260.46C155.253 260.041 155.313 259.666 155.431 259.336C155.55 259.006 155.721 258.726 155.944 258.499C156.16 258.278 156.421 258.109 156.727 257.993C157.034 257.876 157.375 257.818 157.749 257.818C158.022 257.818 158.294 257.851 158.565 257.917C158.839 257.984 159.142 258.1 159.475 258.266V259.069H159.423C159.143 258.835 158.865 258.664 158.589 258.557C158.314 258.45 158.019 258.396 157.704 258.396C157.447 258.396 157.214 258.438 157.007 258.522C156.802 258.604 156.618 258.733 156.457 258.909C156.299 259.08 156.176 259.296 156.087 259.558C156.001 259.818 155.958 260.119 155.958 260.46C155.958 260.818 156.005 261.126 156.101 261.383C156.199 261.641 156.324 261.85 156.477 262.012C156.637 262.181 156.822 262.306 157.034 262.388C157.248 262.468 157.474 262.508 157.711 262.508C158.037 262.508 158.342 262.452 158.627 262.34C158.912 262.229 159.178 262.061 159.427 261.838H159.475V262.631ZM161.03 263H160.387V257.682H161.03V263ZM165.268 263H164.629V262.593C164.572 262.632 164.495 262.687 164.397 262.757C164.301 262.826 164.207 262.88 164.116 262.921C164.009 262.974 163.886 263.017 163.747 263.051C163.608 263.088 163.445 263.106 163.258 263.106C162.914 263.106 162.623 262.992 162.383 262.764C162.144 262.536 162.024 262.246 162.024 261.893C162.024 261.603 162.086 261.37 162.209 261.192C162.334 261.012 162.512 260.871 162.742 260.768C162.975 260.666 163.254 260.596 163.58 260.56C163.905 260.523 164.255 260.496 164.629 260.478V260.378C164.629 260.233 164.603 260.112 164.55 260.016C164.5 259.92 164.427 259.845 164.332 259.791C164.24 259.738 164.131 259.703 164.003 259.685C163.876 259.666 163.743 259.657 163.604 259.657C163.435 259.657 163.247 259.68 163.04 259.726C162.832 259.769 162.618 259.833 162.397 259.917H162.363V259.264C162.488 259.23 162.669 259.192 162.906 259.151C163.143 259.11 163.377 259.09 163.607 259.09C163.876 259.09 164.109 259.113 164.308 259.158C164.508 259.201 164.681 259.277 164.827 259.384C164.971 259.489 165.08 259.624 165.155 259.791C165.231 259.957 165.268 260.163 165.268 260.409V263ZM164.629 262.06V260.997C164.433 261.008 164.202 261.026 163.935 261.048C163.671 261.071 163.461 261.104 163.306 261.147C163.122 261.2 162.972 261.282 162.858 261.394C162.745 261.503 162.688 261.654 162.688 261.848C162.688 262.067 162.754 262.232 162.886 262.344C163.018 262.453 163.22 262.508 163.491 262.508C163.716 262.508 163.923 262.465 164.109 262.378C164.296 262.289 164.469 262.183 164.629 262.06ZM169.233 261.899C169.233 262.248 169.088 262.534 168.799 262.757C168.512 262.981 168.119 263.092 167.62 263.092C167.337 263.092 167.077 263.059 166.84 262.993C166.606 262.925 166.409 262.851 166.249 262.771V262.05H166.283C166.486 262.202 166.712 262.324 166.96 262.416C167.208 262.504 167.447 262.549 167.674 262.549C167.957 262.549 168.178 262.503 168.337 262.412C168.497 262.321 168.577 262.177 168.577 261.981C168.577 261.831 168.533 261.717 168.447 261.64C168.36 261.562 168.194 261.496 167.948 261.441C167.857 261.421 167.737 261.397 167.589 261.37C167.443 261.342 167.31 261.313 167.189 261.281C166.854 261.192 166.616 261.062 166.475 260.891C166.336 260.718 166.266 260.506 166.266 260.255C166.266 260.098 166.298 259.95 166.362 259.811C166.428 259.672 166.527 259.548 166.659 259.438C166.787 259.331 166.949 259.247 167.145 259.186C167.343 259.122 167.564 259.09 167.808 259.09C168.036 259.09 168.266 259.118 168.498 259.175C168.733 259.23 168.928 259.297 169.083 259.377V260.064H169.048C168.884 259.943 168.685 259.842 168.45 259.76C168.216 259.675 167.985 259.633 167.76 259.633C167.525 259.633 167.327 259.679 167.165 259.77C167.003 259.859 166.922 259.992 166.922 260.17C166.922 260.327 166.971 260.446 167.069 260.525C167.165 260.605 167.32 260.67 167.534 260.72C167.653 260.748 167.785 260.775 167.931 260.802C168.079 260.83 168.202 260.855 168.3 260.877C168.598 260.946 168.829 261.063 168.99 261.229C169.152 261.398 169.233 261.621 169.233 261.899ZM172.883 261.899C172.883 262.248 172.739 262.534 172.449 262.757C172.162 262.981 171.769 263.092 171.27 263.092C170.988 263.092 170.728 263.059 170.491 262.993C170.256 262.925 170.059 262.851 169.899 262.771V262.05H169.934C170.136 262.202 170.362 262.324 170.61 262.416C170.859 262.504 171.097 262.549 171.325 262.549C171.607 262.549 171.828 262.503 171.988 262.412C172.147 262.321 172.227 262.177 172.227 261.981C172.227 261.831 172.184 261.717 172.097 261.64C172.011 261.562 171.844 261.496 171.598 261.441C171.507 261.421 171.387 261.397 171.239 261.37C171.093 261.342 170.96 261.313 170.839 261.281C170.504 261.192 170.266 261.062 170.125 260.891C169.986 260.718 169.917 260.506 169.917 260.255C169.917 260.098 169.948 259.95 170.012 259.811C170.078 259.672 170.177 259.548 170.31 259.438C170.437 259.331 170.599 259.247 170.795 259.186C170.993 259.122 171.214 259.09 171.458 259.09C171.686 259.09 171.916 259.118 172.148 259.175C172.383 259.23 172.578 259.297 172.733 259.377V260.064H172.699C172.535 259.943 172.335 259.842 172.101 259.76C171.866 259.675 171.636 259.633 171.41 259.633C171.176 259.633 170.977 259.679 170.815 259.77C170.654 259.859 170.573 259.992 170.573 260.17C170.573 260.327 170.622 260.446 170.72 260.525C170.815 260.605 170.97 260.67 171.185 260.72C171.303 260.748 171.435 260.775 171.581 260.802C171.729 260.83 171.852 260.855 171.95 260.877C172.249 260.946 172.479 261.063 172.641 261.229C172.802 261.398 172.883 261.621 172.883 261.899ZM180.249 262.631C180.124 262.686 180.01 262.737 179.907 262.785C179.807 262.833 179.675 262.883 179.511 262.935C179.372 262.978 179.22 263.015 179.056 263.044C178.894 263.076 178.716 263.092 178.52 263.092C178.15 263.092 177.814 263.041 177.511 262.938C177.211 262.834 176.948 262.671 176.725 262.45C176.506 262.233 176.336 261.959 176.212 261.626C176.089 261.291 176.028 260.903 176.028 260.46C176.028 260.041 176.087 259.666 176.206 259.336C176.324 259.006 176.495 258.726 176.718 258.499C176.935 258.278 177.196 258.109 177.501 257.993C177.809 257.876 178.149 257.818 178.523 257.818C178.796 257.818 179.069 257.851 179.34 257.917C179.613 257.984 179.916 258.1 180.249 258.266V259.069H180.198C179.918 258.835 179.64 258.664 179.364 258.557C179.088 258.45 178.793 258.396 178.479 258.396C178.221 258.396 177.989 258.438 177.781 258.522C177.576 258.604 177.393 258.733 177.231 258.909C177.074 259.08 176.951 259.296 176.862 259.558C176.775 259.818 176.732 260.119 176.732 260.46C176.732 260.818 176.78 261.126 176.876 261.383C176.974 261.641 177.099 261.85 177.252 262.012C177.411 262.181 177.597 262.306 177.809 262.388C178.023 262.468 178.248 262.508 178.485 262.508C178.811 262.508 179.117 262.452 179.401 262.34C179.686 262.229 179.953 262.061 180.201 261.838H180.249V262.631Z" fill="#2E3A59"/>
<path d="M206.475 262.631C206.349 262.686 206.235 262.737 206.133 262.785C206.033 262.833 205.9 262.883 205.736 262.935C205.597 262.978 205.446 263.015 205.282 263.044C205.12 263.076 204.941 263.092 204.745 263.092C204.376 263.092 204.04 263.041 203.737 262.938C203.436 262.834 203.174 262.671 202.951 262.45C202.732 262.233 202.561 261.959 202.438 261.626C202.315 261.291 202.253 260.903 202.253 260.46C202.253 260.041 202.313 259.666 202.431 259.336C202.55 259.006 202.721 258.726 202.944 258.499C203.16 258.278 203.421 258.109 203.727 257.993C204.034 257.876 204.375 257.818 204.749 257.818C205.022 257.818 205.294 257.851 205.565 257.917C205.839 257.984 206.142 258.1 206.475 258.266V259.069H206.423C206.143 258.835 205.865 258.664 205.589 258.557C205.314 258.45 205.019 258.396 204.704 258.396C204.447 258.396 204.214 258.438 204.007 258.522C203.802 258.604 203.618 258.733 203.457 258.909C203.299 259.08 203.176 259.296 203.087 259.558C203.001 259.818 202.958 260.119 202.958 260.46C202.958 260.818 203.005 261.126 203.101 261.383C203.199 261.641 203.324 261.85 203.477 262.012C203.637 262.181 203.822 262.306 204.034 262.388C204.248 262.468 204.474 262.508 204.711 262.508C205.037 262.508 205.342 262.452 205.627 262.34C205.912 262.229 206.178 262.061 206.427 261.838H206.475V262.631ZM208.03 263H207.387V257.682H208.03V263ZM212.268 263H211.629V262.593C211.572 262.632 211.495 262.687 211.397 262.757C211.301 262.826 211.207 262.88 211.116 262.921C211.009 262.974 210.886 263.017 210.747 263.051C210.608 263.088 210.445 263.106 210.258 263.106C209.914 263.106 209.623 262.992 209.383 262.764C209.144 262.536 209.024 262.246 209.024 261.893C209.024 261.603 209.086 261.37 209.209 261.192C209.334 261.012 209.512 260.871 209.742 260.768C209.975 260.666 210.254 260.596 210.58 260.56C210.905 260.523 211.255 260.496 211.629 260.478V260.378C211.629 260.233 211.603 260.112 211.55 260.016C211.5 259.92 211.427 259.845 211.332 259.791C211.24 259.738 211.131 259.703 211.003 259.685C210.876 259.666 210.743 259.657 210.604 259.657C210.435 259.657 210.247 259.68 210.04 259.726C209.832 259.769 209.618 259.833 209.397 259.917H209.363V259.264C209.488 259.23 209.669 259.192 209.906 259.151C210.143 259.11 210.377 259.09 210.607 259.09C210.876 259.09 211.109 259.113 211.308 259.158C211.508 259.201 211.681 259.277 211.827 259.384C211.971 259.489 212.08 259.624 212.155 259.791C212.231 259.957 212.268 260.163 212.268 260.409V263ZM211.629 262.06V260.997C211.433 261.008 211.202 261.026 210.935 261.048C210.671 261.071 210.461 261.104 210.306 261.147C210.122 261.2 209.972 261.282 209.858 261.394C209.745 261.503 209.688 261.654 209.688 261.848C209.688 262.067 209.754 262.232 209.886 262.344C210.018 262.453 210.22 262.508 210.491 262.508C210.716 262.508 210.923 262.465 211.109 262.378C211.296 262.289 211.469 262.183 211.629 262.06ZM216.233 261.899C216.233 262.248 216.088 262.534 215.799 262.757C215.512 262.981 215.119 263.092 214.62 263.092C214.337 263.092 214.077 263.059 213.84 262.993C213.606 262.925 213.409 262.851 213.249 262.771V262.05H213.283C213.486 262.202 213.712 262.324 213.96 262.416C214.208 262.504 214.447 262.549 214.674 262.549C214.957 262.549 215.178 262.503 215.337 262.412C215.497 262.321 215.577 262.177 215.577 261.981C215.577 261.831 215.533 261.717 215.447 261.64C215.36 261.562 215.194 261.496 214.948 261.441C214.857 261.421 214.737 261.397 214.589 261.37C214.443 261.342 214.31 261.313 214.189 261.281C213.854 261.192 213.616 261.062 213.475 260.891C213.336 260.718 213.266 260.506 213.266 260.255C213.266 260.098 213.298 259.95 213.362 259.811C213.428 259.672 213.527 259.548 213.659 259.438C213.787 259.331 213.949 259.247 214.145 259.186C214.343 259.122 214.564 259.09 214.808 259.09C215.036 259.09 215.266 259.118 215.498 259.175C215.733 259.23 215.928 259.297 216.083 259.377V260.064H216.048C215.884 259.943 215.685 259.842 215.45 259.76C215.216 259.675 214.985 259.633 214.76 259.633C214.525 259.633 214.327 259.679 214.165 259.77C214.003 259.859 213.922 259.992 213.922 260.17C213.922 260.327 213.971 260.446 214.069 260.525C214.165 260.605 214.32 260.67 214.534 260.72C214.653 260.748 214.785 260.775 214.931 260.802C215.079 260.83 215.202 260.855 215.3 260.877C215.598 260.946 215.829 261.063 215.99 261.229C216.152 261.398 216.233 261.621 216.233 261.899ZM219.883 261.899C219.883 262.248 219.739 262.534 219.449 262.757C219.162 262.981 218.769 263.092 218.27 263.092C217.988 263.092 217.728 263.059 217.491 262.993C217.256 262.925 217.059 262.851 216.899 262.771V262.05H216.934C217.136 262.202 217.362 262.324 217.61 262.416C217.859 262.504 218.097 262.549 218.325 262.549C218.607 262.549 218.828 262.503 218.988 262.412C219.147 262.321 219.227 262.177 219.227 261.981C219.227 261.831 219.184 261.717 219.097 261.64C219.011 261.562 218.844 261.496 218.598 261.441C218.507 261.421 218.387 261.397 218.239 261.37C218.093 261.342 217.96 261.313 217.839 261.281C217.504 261.192 217.266 261.062 217.125 260.891C216.986 260.718 216.917 260.506 216.917 260.255C216.917 260.098 216.948 259.95 217.012 259.811C217.078 259.672 217.177 259.548 217.31 259.438C217.437 259.331 217.599 259.247 217.795 259.186C217.993 259.122 218.214 259.09 218.458 259.09C218.686 259.09 218.916 259.118 219.148 259.175C219.383 259.23 219.578 259.297 219.733 259.377V260.064H219.699C219.535 259.943 219.335 259.842 219.101 259.76C218.866 259.675 218.636 259.633 218.41 259.633C218.176 259.633 217.977 259.679 217.815 259.77C217.654 259.859 217.573 259.992 217.573 260.17C217.573 260.327 217.622 260.446 217.72 260.525C217.815 260.605 217.97 260.67 218.185 260.72C218.303 260.748 218.435 260.775 218.581 260.802C218.729 260.83 218.852 260.855 218.95 260.877C219.249 260.946 219.479 261.063 219.641 261.229C219.802 261.398 219.883 261.621 219.883 261.899ZM227.618 260.46C227.618 260.923 227.517 261.342 227.314 261.718C227.114 262.094 226.846 262.386 226.511 262.593C226.278 262.737 226.019 262.84 225.732 262.904C225.447 262.968 225.071 263 224.604 263H223.318V257.911H224.59C225.087 257.911 225.481 257.947 225.773 258.02C226.066 258.091 226.315 258.189 226.518 258.314C226.864 258.53 227.134 258.819 227.328 259.179C227.521 259.539 227.618 259.966 227.618 260.46ZM226.911 260.45C226.911 260.051 226.841 259.715 226.702 259.442C226.563 259.168 226.356 258.953 226.08 258.796C225.88 258.682 225.667 258.603 225.441 258.56C225.215 258.514 224.945 258.492 224.631 258.492H223.995V262.419H224.631C224.957 262.419 225.24 262.395 225.482 262.347C225.726 262.299 225.949 262.21 226.152 262.081C226.405 261.919 226.594 261.706 226.719 261.441C226.847 261.177 226.911 260.847 226.911 260.45Z" fill="#2E3A59"/>
<path d="M254.475 262.631C254.349 262.686 254.235 262.737 254.133 262.785C254.033 262.833 253.9 262.883 253.736 262.935C253.597 262.978 253.446 263.015 253.282 263.044C253.12 263.076 252.941 263.092 252.745 263.092C252.376 263.092 252.04 263.041 251.737 262.938C251.436 262.834 251.174 262.671 250.951 262.45C250.732 262.233 250.561 261.959 250.438 261.626C250.315 261.291 250.253 260.903 250.253 260.46C250.253 260.041 250.313 259.666 250.431 259.336C250.55 259.006 250.721 258.726 250.944 258.499C251.16 258.278 251.421 258.109 251.727 257.993C252.034 257.876 252.375 257.818 252.749 257.818C253.022 257.818 253.294 257.851 253.565 257.917C253.839 257.984 254.142 258.1 254.475 258.266V259.069H254.423C254.143 258.835 253.865 258.664 253.589 258.557C253.314 258.45 253.019 258.396 252.704 258.396C252.447 258.396 252.214 258.438 252.007 258.522C251.802 258.604 251.618 258.733 251.457 258.909C251.299 259.08 251.176 259.296 251.087 259.558C251.001 259.818 250.958 260.119 250.958 260.46C250.958 260.818 251.005 261.126 251.101 261.383C251.199 261.641 251.324 261.85 251.477 262.012C251.637 262.181 251.822 262.306 252.034 262.388C252.248 262.468 252.474 262.508 252.711 262.508C253.037 262.508 253.342 262.452 253.627 262.34C253.912 262.229 254.178 262.061 254.427 261.838H254.475V262.631ZM256.03 263H255.387V257.682H256.03V263ZM260.268 263H259.629V262.593C259.572 262.632 259.495 262.687 259.397 262.757C259.301 262.826 259.207 262.88 259.116 262.921C259.009 262.974 258.886 263.017 258.747 263.051C258.608 263.088 258.445 263.106 258.258 263.106C257.914 263.106 257.623 262.992 257.383 262.764C257.144 262.536 257.024 262.246 257.024 261.893C257.024 261.603 257.086 261.37 257.209 261.192C257.334 261.012 257.512 260.871 257.742 260.768C257.975 260.666 258.254 260.596 258.58 260.56C258.905 260.523 259.255 260.496 259.629 260.478V260.378C259.629 260.233 259.603 260.112 259.55 260.016C259.5 259.92 259.427 259.845 259.332 259.791C259.24 259.738 259.131 259.703 259.003 259.685C258.876 259.666 258.743 259.657 258.604 259.657C258.435 259.657 258.247 259.68 258.04 259.726C257.832 259.769 257.618 259.833 257.397 259.917H257.363V259.264C257.488 259.23 257.669 259.192 257.906 259.151C258.143 259.11 258.377 259.09 258.607 259.09C258.876 259.09 259.109 259.113 259.308 259.158C259.508 259.201 259.681 259.277 259.827 259.384C259.971 259.489 260.08 259.624 260.155 259.791C260.231 259.957 260.268 260.163 260.268 260.409V263ZM259.629 262.06V260.997C259.433 261.008 259.202 261.026 258.935 261.048C258.671 261.071 258.461 261.104 258.306 261.147C258.122 261.2 257.972 261.282 257.858 261.394C257.745 261.503 257.688 261.654 257.688 261.848C257.688 262.067 257.754 262.232 257.886 262.344C258.018 262.453 258.22 262.508 258.491 262.508C258.716 262.508 258.923 262.465 259.109 262.378C259.296 262.289 259.469 262.183 259.629 262.06ZM264.233 261.899C264.233 262.248 264.088 262.534 263.799 262.757C263.512 262.981 263.119 263.092 262.62 263.092C262.337 263.092 262.077 263.059 261.84 262.993C261.606 262.925 261.409 262.851 261.249 262.771V262.05H261.283C261.486 262.202 261.712 262.324 261.96 262.416C262.208 262.504 262.447 262.549 262.674 262.549C262.957 262.549 263.178 262.503 263.337 262.412C263.497 262.321 263.577 262.177 263.577 261.981C263.577 261.831 263.533 261.717 263.447 261.64C263.36 261.562 263.194 261.496 262.948 261.441C262.857 261.421 262.737 261.397 262.589 261.37C262.443 261.342 262.31 261.313 262.189 261.281C261.854 261.192 261.616 261.062 261.475 260.891C261.336 260.718 261.266 260.506 261.266 260.255C261.266 260.098 261.298 259.95 261.362 259.811C261.428 259.672 261.527 259.548 261.659 259.438C261.787 259.331 261.949 259.247 262.145 259.186C262.343 259.122 262.564 259.09 262.808 259.09C263.036 259.09 263.266 259.118 263.498 259.175C263.733 259.23 263.928 259.297 264.083 259.377V260.064H264.048C263.884 259.943 263.685 259.842 263.45 259.76C263.216 259.675 262.985 259.633 262.76 259.633C262.525 259.633 262.327 259.679 262.165 259.77C262.003 259.859 261.922 259.992 261.922 260.17C261.922 260.327 261.971 260.446 262.069 260.525C262.165 260.605 262.32 260.67 262.534 260.72C262.653 260.748 262.785 260.775 262.931 260.802C263.079 260.83 263.202 260.855 263.3 260.877C263.598 260.946 263.829 261.063 263.99 261.229C264.152 261.398 264.233 261.621 264.233 261.899ZM267.883 261.899C267.883 262.248 267.739 262.534 267.449 262.757C267.162 262.981 266.769 263.092 266.27 263.092C265.988 263.092 265.728 263.059 265.491 262.993C265.256 262.925 265.059 262.851 264.899 262.771V262.05H264.934C265.136 262.202 265.362 262.324 265.61 262.416C265.859 262.504 266.097 262.549 266.325 262.549C266.607 262.549 266.828 262.503 266.988 262.412C267.147 262.321 267.227 262.177 267.227 261.981C267.227 261.831 267.184 261.717 267.097 261.64C267.011 261.562 266.844 261.496 266.598 261.441C266.507 261.421 266.387 261.397 266.239 261.37C266.093 261.342 265.96 261.313 265.839 261.281C265.504 261.192 265.266 261.062 265.125 260.891C264.986 260.718 264.917 260.506 264.917 260.255C264.917 260.098 264.948 259.95 265.012 259.811C265.078 259.672 265.177 259.548 265.31 259.438C265.437 259.331 265.599 259.247 265.795 259.186C265.993 259.122 266.214 259.09 266.458 259.09C266.686 259.09 266.916 259.118 267.148 259.175C267.383 259.23 267.578 259.297 267.733 259.377V260.064H267.699C267.535 259.943 267.335 259.842 267.101 259.76C266.866 259.675 266.636 259.633 266.41 259.633C266.176 259.633 265.977 259.679 265.815 259.77C265.654 259.859 265.573 259.992 265.573 260.17C265.573 260.327 265.622 260.446 265.72 260.525C265.815 260.605 265.97 260.67 266.185 260.72C266.303 260.748 266.435 260.775 266.581 260.802C266.729 260.83 266.852 260.855 266.95 260.877C267.249 260.946 267.479 261.063 267.641 261.229C267.802 261.398 267.883 261.621 267.883 261.899ZM274.671 263H271.318V257.911H274.671V258.512H271.995V259.907H274.671V260.508H271.995V262.398H274.671V263Z" fill="#2E3A59"/>
<defs>
<filter id="filter0_b_12_368" x="50.4651" y="115" width="56.6047" height="131" filterUnits="userSpaceOnUse" color-interpolation-filters="sRGB">
<feFlood flood-opacity="0" result="BackgroundImageFix"/>
<feGaussianBlur in="BackgroundImageFix" stdDeviation="2"/>
<feComposite in2="SourceAlpha" operator="in" result="effect1_backgroundBlur_12_368"/>
<feBlend mode="normal" in="SourceGraphic" in2="effect1_backgroundBlur_12_368" result="shape"/>
</filter>
<filter id="filter1_b_12_368" x="230.814" y="167" width="57.8837" height="79" filterUnits="userSpaceOnUse" color-interpolation-filters="sRGB">
<feFlood flood-opacity="0" result="BackgroundImageFix"/>
<feGaussianBlur in="BackgroundImageFix" stdDeviation="2"/>
<feComposite in2="SourceAlpha" operator="in" result="effect1_backgroundBlur_12_368"/>
<feBlend mode="normal" in="SourceGraphic" in2="effect1_backgroundBlur_12_368" result="shape"/>
</filter>
<filter id="filter2_b_12_368" x="110.581" y="149" width="57.8837" height="97" filterUnits="userSpaceOnUse" color-interpolation-filters="sRGB">
<feFlood flood-opacity="0" result="BackgroundImageFix"/>
<feGaussianBlur in="BackgroundImageFix" stdDeviation="2"/>
<feComposite in2="SourceAlpha" operator="in" result="effect1_backgroundBlur_12_368"/>
<feBlend mode="normal" in="SourceGraphic" in2="effect1_backgroundBlur_12_368" result="shape"/>
</filter>
<filter id="filter3_b_12_368" x="292.209" y="19" width="56.6047" height="227" filterUnits="userSpaceOnUse" color-interpolation-filters="sRGB">
<feFlood flood-opacity="0" result="BackgroundImageFix"/>
<feGaussianBlur in="BackgroundImageFix" stdDeviation="2"/>
<feComposite in2="SourceAlpha" operator="in" result="effect1_backgroundBlur_12_368"/>
<feBlend mode="normal" in="SourceGraphic" in2="effect1_backgroundBlur_12_368" result="shape"/>
</filter>
<filter id="filter4_b_12_368" x="171.977" y="60" width="55.3256" height="186" filterUnits="userSpaceOnUse" color-interpolation-filters="sRGB">
<feFlood flood-opacity="0" result="BackgroundImageFix"/>
<feGaussianBlur in="BackgroundImageFix" stdDeviation="2"/>
<feComposite in2="SourceAlpha" operator="in" result="effect1_backgroundBlur_12_368"/>
<feBlend mode="normal" in="SourceGraphic" in2="effect1_backgroundBlur_12_368" result="shape"/>
</filter>
<filter id="filter5_b_12_368" x="211.465" y="91" width="92.7442" height="52" filterUnits="userSpaceOnUse" color-interpolation-filters="sRGB">
<feFlood flood-opacity="0" result="BackgroundImageFix"/>
<feGaussianBlur in="BackgroundImageFix" stdDeviation="4"/>
<feComposite in2="SourceAlpha" operator="in" result="effect1_backgroundBlur_12_368"/>
<feBlend mode="normal" in="SourceGraphic" in2="effect1_backgroundBlur_12_368" result="shape"/>
</filter>
</defs>
</svg>
